<?xml version="1.0" standalone="no"?>
<!DOCTYPE svg PUBLIC "-//W3C//DTD SVG 20010904//EN"
 "http://www.w3.org/TR/2001/REC-SVG-20010904/DTD/svg10.dtd">
<svg version="1.0" xmlns="http://www.w3.org/2000/svg"
 width="512.000000pt" height="512.000000pt" viewBox="0 0 512.000000 512.000000"
 preserveAspectRatio="xMidYMid meet">
<metadata>
Created by potrace 1.11, written by Peter Selinger 2001-2013
</metadata>
<g transform="translate(0.000000,512.000000) scale(0.100000,-0.100000)"
fill="#000000" stroke="none">
<path d="M0 2560 l0 -2560 2560 0 2560 0 0 2560 0 2560 -2560 0 -2560 0 0
-2560z m2560 1417 c116 -20 200 -46 307 -98 158 -76 258 -186 310 -342 23 -71
26 -98 26 -207 1 -113 -2 -133 -29 -210 -17 -47 -47 -111 -68 -143 -51 -77
-169 -185 -249 -227 -37 -19 -66 -39 -64 -44 2 -5 41 -19 87 -33 260 -75 434
-241 497 -473 27 -101 25 -320 -5 -425 -82 -286 -335 -514 -666 -599 -183 -48
-201 -49 -1008 -53 l-768 -4 0 1441 0 1442 768 -5 c646 -3 782 -6 862 -20z
m1630 -1847 l0 -310 -310 0 -310 0 0 310 0 310 310 0 310 0 0 -310z m0 -700
l0 -310 -310 0 -310 0 0 310 0 310 310 0 310 0 0 -310z"/>
<path d="M1670 3164 l0 -307 236 6 c262 8 345 21 417 67 83 52 119 125 120
245 1 135 -59 223 -180 265 -63 22 -87 24 -330 28 l-263 4 0 -308z"/>
<path d="M1670 2011 l0 -361 278 0 c159 0 304 5 338 11 142 26 262 97 303 178
59 115 48 302 -23 396 -33 42 -131 93 -213 110 -43 8 -181 16 -375 21 l-308 7
0 -362z"/>
</g>
</svg>
